<svg xmlns="http://www.w3.org/2000/svg" xmlns:xlink="http://www.w3.org/1999/xlink" width="500" zoomAndPan="magnify" viewBox="0 0 375 374.999991" height="500" preserveAspectRatio="xMidYMid meet" version="1.2"><defs><clipPath id="c7c59b3e01"><path d="M 143.238281 111 L 231.738281 111 L 231.738281 199.308594 L 143.238281 199.308594 Z M 143.238281 111 "/></clipPath><clipPath id="0d11797f17"><path d="M 164 105.558594 L 210 105.558594 L 210 167 L 164 167 Z M 164 105.558594 "/></clipPath></defs><g id="0aa1a0fb79"><g style="fill:#3facda;fill-opacity:1;"><g transform="translate(98.484901, 240.368276)"><path style="stroke:none" d="M 8.25 -24.875 L 8.25 0 L 2.203125 0 L 2.203125 -24.875 Z M 8.25 -24.875 "/></g></g><g style="fill:#3facda;fill-opacity:1;"><g transform="translate(112.266344, 240.368276)"><path style="stroke:none" d="M 21.15625 -16.875 C 21.15625 -15.425781 20.820312 -14.101562 20.15625 -12.90625 C 19.5 -11.71875 18.484375 -10.757812 17.109375 -10.03125 C 15.742188 -9.300781 14.046875 -8.9375 12.015625 -8.9375 L 8.25 -8.9375 L 8.25 0 L 2.203125 0 L 2.203125 -24.875 L 12.015625 -24.875 C 13.992188 -24.875 15.664062 -24.53125 17.03125 -23.84375 C 18.40625 -23.164062 19.4375 -22.222656 20.125 -21.015625 C 20.8125 -19.804688 21.15625 -18.425781 21.15625 -16.875 Z M 11.546875 -13.75 C 12.710938 -13.75 13.578125 -14.019531 14.140625 -14.5625 C 14.703125 -15.101562 14.984375 -15.875 14.984375 -16.875 C 14.984375 -17.863281 14.703125 -18.628906 14.140625 -19.171875 C 13.578125 -19.710938 12.710938 -19.984375 11.546875 -19.984375 L 8.25 -19.984375 L 8.25 -13.75 Z M 11.546875 -13.75 "/></g></g><g style="fill:#3facda;fill-opacity:1;"><g transform="translate(137.70285, 240.368276)"><path style="stroke:none" d=""/></g></g><g style="fill:#3facda;fill-opacity:1;"><g transform="translate(148.543964, 240.368276)"><path style="stroke:none" d="M 17.6875 -4.390625 L 8.40625 -4.390625 L 6.90625 0 L 0.5625 0 L 9.5625 -24.875 L 16.578125 -24.875 L 25.578125 0 L 19.171875 0 Z M 16.125 -9.078125 L 13.046875 -18.171875 L 10 -9.078125 Z M 16.125 -9.078125 "/></g></g><g style="fill:#3facda;fill-opacity:1;"><g transform="translate(177.983579, 240.368276)"><path style="stroke:none" d="M 8.25 -4.671875 L 16.1875 -4.671875 L 16.1875 0 L 2.203125 0 L 2.203125 -24.875 L 8.25 -24.875 Z M 8.25 -4.671875 "/></g></g><g style="fill:#3facda;fill-opacity:1;"><g transform="translate(198.212509, 240.368276)"><path style="stroke:none" d="M 8.25 -4.671875 L 16.1875 -4.671875 L 16.1875 0 L 2.203125 0 L 2.203125 -24.875 L 8.25 -24.875 Z M 8.25 -4.671875 "/></g></g><g style="fill:#3facda;fill-opacity:1;"><g transform="translate(218.44144, 240.368276)"><path style="stroke:none" d="M 8.25 -24.875 L 8.25 0 L 2.203125 0 L 2.203125 -24.875 Z M 8.25 -24.875 "/></g></g><g style="fill:#3facda;fill-opacity:1;"><g transform="translate(232.222883, 240.368276)"><path style="stroke:none" d="M 8.25 -20.015625 L 8.25 -14.984375 L 16.375 -14.984375 L 16.375 -10.3125 L 8.25 -10.3125 L 8.25 -4.859375 L 17.4375 -4.859375 L 17.4375 0 L 2.203125 0 L 2.203125 -24.875 L 17.4375 -24.875 L 17.4375 -20.015625 Z M 8.25 -20.015625 "/></g></g><g style="fill:#3facda;fill-opacity:1;"><g transform="translate(254.71906, 240.368276)"><path style="stroke:none" d="M 11.203125 0.25 C 9.378906 0.25 7.742188 -0.046875 6.296875 -0.640625 C 4.859375 -1.234375 3.707031 -2.109375 2.84375 -3.265625 C 1.988281 -4.421875 1.535156 -5.8125 1.484375 -7.4375 L 7.9375 -7.4375 C 8.03125 -6.519531 8.347656 -5.816406 8.890625 -5.328125 C 9.429688 -4.847656 10.140625 -4.609375 11.015625 -4.609375 C 11.921875 -4.609375 12.628906 -4.8125 13.140625 -5.21875 C 13.660156 -5.632812 13.921875 -6.210938 13.921875 -6.953125 C 13.921875 -7.554688 13.710938 -8.0625 13.296875 -8.46875 C 12.890625 -8.875 12.382812 -9.207031 11.78125 -9.46875 C 11.175781 -9.726562 10.320312 -10.019531 9.21875 -10.34375 C 7.601562 -10.84375 6.285156 -11.335938 5.265625 -11.828125 C 4.253906 -12.328125 3.382812 -13.0625 2.65625 -14.03125 C 1.925781 -15 1.5625 -16.265625 1.5625 -17.828125 C 1.5625 -20.140625 2.398438 -21.953125 4.078125 -23.265625 C 5.753906 -24.578125 7.9375 -25.234375 10.625 -25.234375 C 13.363281 -25.234375 15.570312 -24.578125 17.25 -23.265625 C 18.9375 -21.953125 19.835938 -20.128906 19.953125 -17.796875 L 13.390625 -17.796875 C 13.347656 -18.597656 13.050781 -19.226562 12.5 -19.6875 C 11.957031 -20.144531 11.265625 -20.375 10.421875 -20.375 C 9.679688 -20.375 9.085938 -20.175781 8.640625 -19.78125 C 8.191406 -19.394531 7.96875 -18.835938 7.96875 -18.109375 C 7.96875 -17.304688 8.34375 -16.679688 9.09375 -16.234375 C 9.851562 -15.785156 11.039062 -15.300781 12.65625 -14.78125 C 14.257812 -14.238281 15.5625 -13.71875 16.5625 -13.21875 C 17.570312 -12.71875 18.441406 -11.992188 19.171875 -11.046875 C 19.898438 -10.109375 20.265625 -8.894531 20.265625 -7.40625 C 20.265625 -5.988281 19.90625 -4.703125 19.1875 -3.546875 C 18.46875 -2.390625 17.421875 -1.46875 16.046875 -0.78125 C 14.679688 -0.09375 13.066406 0.25 11.203125 0.25 Z M 11.203125 0.25 "/></g></g><g style="fill:#1c3762;fill-opacity:1;"><g transform="translate(106.684193, 255.162294)"><path style="stroke:none" d="M 5.375 -4.75 L 5.375 0 L 4.75 0 L 4.75 -3.546875 L 3.171875 0 L 2.734375 0 L 1.15625 -3.546875 L 1.15625 0 L 0.53125 0 L 0.53125 -4.75 L 1.203125 -4.75 L 2.953125 -0.828125 L 4.71875 -4.75 Z M 5.375 -4.75 "/></g></g><g style="fill:#1c3762;fill-opacity:1;"><g transform="translate(114.297109, 255.162294)"><path style="stroke:none" d="M 3.359375 -1.0625 L 1.265625 -1.0625 L 0.890625 0 L 0.21875 0 L 1.953125 -4.75 L 2.671875 -4.75 L 4.390625 0 L 3.734375 0 Z M 3.171875 -1.578125 L 2.3125 -3.984375 L 1.453125 -1.578125 Z M 3.171875 -1.578125 "/></g></g><g style="fill:#1c3762;fill-opacity:1;"><g transform="translate(120.627486, 255.162294)"><path style="stroke:none" d="M 2.484375 -2.390625 L 3.953125 0 L 3.25 0 L 2.09375 -1.859375 L 1.015625 0 L 0.3125 0 L 1.78125 -2.390625 L 0.3125 -4.78125 L 1.015625 -4.78125 L 2.15625 -2.90625 L 3.265625 -4.78125 L 3.953125 -4.78125 Z M 2.484375 -2.390625 "/></g></g><g style="fill:#1c3762;fill-opacity:1;"><g transform="translate(126.594363, 255.162294)"><path style="stroke:none" d="M 1.15625 -4.78125 L 1.15625 0 L 0.53125 0 L 0.53125 -4.78125 Z M 1.15625 -4.78125 "/></g></g><g style="fill:#1c3762;fill-opacity:1;"><g transform="translate(129.989305, 255.162294)"><path style="stroke:none" d="M 5.375 -4.75 L 5.375 0 L 4.75 0 L 4.75 -3.546875 L 3.171875 0 L 2.734375 0 L 1.15625 -3.546875 L 1.15625 0 L 0.53125 0 L 0.53125 -4.75 L 1.203125 -4.75 L 2.953125 -0.828125 L 4.71875 -4.75 Z M 5.375 -4.75 "/></g></g><g style="fill:#1c3762;fill-opacity:1;"><g transform="translate(137.602222, 255.162294)"><path style="stroke:none" d="M 1.15625 -4.78125 L 1.15625 0 L 0.53125 0 L 0.53125 -4.78125 Z M 1.15625 -4.78125 "/></g></g><g style="fill:#1c3762;fill-opacity:1;"><g transform="translate(140.997164, 255.162294)"><path style="stroke:none" d="M 1.0625 -0.546875 L 3.390625 -0.546875 L 3.390625 0 L 0.3125 0 L 0.3125 -0.5 L 2.640625 -4.234375 L 0.34375 -4.234375 L 0.34375 -4.78125 L 3.375 -4.78125 L 3.375 -4.28125 Z M 1.0625 -0.546875 "/></g></g><g style="fill:#1c3762;fill-opacity:1;"><g transform="translate(146.415362, 255.162294)"><path style="stroke:none" d="M 1.15625 -4.78125 L 1.15625 0 L 0.53125 0 L 0.53125 -4.78125 Z M 1.15625 -4.78125 "/></g></g><g style="fill:#1c3762;fill-opacity:1;"><g transform="translate(149.810304, 255.162294)"><path style="stroke:none" d="M 4.28125 0 L 3.65625 0 L 1.15625 -3.8125 L 1.15625 0 L 0.53125 0 L 0.53125 -4.78125 L 1.15625 -4.78125 L 3.65625 -0.984375 L 3.65625 -4.78125 L 4.28125 -4.78125 Z M 4.28125 0 "/></g></g><g style="fill:#1c3762;fill-opacity:1;"><g transform="translate(156.339579, 255.162294)"><path style="stroke:none" d="M 4.15625 -3.390625 C 4.019531 -3.671875 3.828125 -3.882812 3.578125 -4.03125 C 3.328125 -4.1875 3.035156 -4.265625 2.703125 -4.265625 C 2.359375 -4.265625 2.050781 -4.1875 1.78125 -4.03125 C 1.519531 -3.882812 1.3125 -3.664062 1.15625 -3.375 C 1.007812 -3.09375 0.9375 -2.765625 0.9375 -2.390625 C 0.9375 -2.015625 1.007812 -1.6875 1.15625 -1.40625 C 1.3125 -1.125 1.519531 -0.90625 1.78125 -0.75 C 2.050781 -0.59375 2.359375 -0.515625 2.703125 -0.515625 C 3.160156 -0.515625 3.539062 -0.65625 3.84375 -0.9375 C 4.144531 -1.21875 4.320312 -1.597656 4.375 -2.078125 L 2.46875 -2.078125 L 2.46875 -2.578125 L 5.046875 -2.578125 L 5.046875 -2.09375 C 5.003906 -1.707031 4.878906 -1.347656 4.671875 -1.015625 C 4.460938 -0.691406 4.1875 -0.429688 3.84375 -0.234375 C 3.5 -0.046875 3.117188 0.046875 2.703125 0.046875 C 2.253906 0.046875 1.847656 -0.0546875 1.484375 -0.265625 C 1.117188 -0.472656 0.828125 -0.757812 0.609375 -1.125 C 0.398438 -1.5 0.296875 -1.921875 0.296875 -2.390625 C 0.296875 -2.859375 0.398438 -3.28125 0.609375 -3.65625 C 0.828125 -4.03125 1.117188 -4.316406 1.484375 -4.515625 C 1.847656 -4.722656 2.253906 -4.828125 2.703125 -4.828125 C 3.203125 -4.828125 3.644531 -4.703125 4.03125 -4.453125 C 4.425781 -4.203125 4.710938 -3.847656 4.890625 -3.390625 Z M 4.15625 -3.390625 "/></g></g><g style="fill:#1c3762;fill-opacity:1;"><g transform="translate(163.383234, 255.162294)"><path style="stroke:none" d=""/></g></g><g style="fill:#1c3762;fill-opacity:1;"><g transform="translate(166.922203, 255.162294)"><path style="stroke:none" d="M 3.875 -4.78125 L 2.3125 -1.796875 L 2.3125 0 L 1.6875 0 L 1.6875 -1.796875 L 0.125 -4.78125 L 0.828125 -4.78125 L 2 -2.359375 L 3.1875 -4.78125 Z M 3.875 -4.78125 "/></g></g><g style="fill:#1c3762;fill-opacity:1;"><g transform="translate(172.635318, 255.162294)"><path style="stroke:none" d="M 2.703125 0.046875 C 2.253906 0.046875 1.847656 -0.0546875 1.484375 -0.265625 C 1.117188 -0.472656 0.828125 -0.757812 0.609375 -1.125 C 0.398438 -1.5 0.296875 -1.921875 0.296875 -2.390625 C 0.296875 -2.859375 0.398438 -3.28125 0.609375 -3.65625 C 0.828125 -4.03125 1.117188 -4.316406 1.484375 -4.515625 C 1.847656 -4.722656 2.253906 -4.828125 2.703125 -4.828125 C 3.148438 -4.828125 3.554688 -4.722656 3.921875 -4.515625 C 4.285156 -4.316406 4.570312 -4.03125 4.78125 -3.65625 C 4.988281 -3.28125 5.09375 -2.859375 5.09375 -2.390625 C 5.09375 -1.921875 4.988281 -1.5 4.78125 -1.125 C 4.570312 -0.757812 4.285156 -0.472656 3.921875 -0.265625 C 3.554688 -0.0546875 3.148438 0.046875 2.703125 0.046875 Z M 2.703125 -0.5 C 3.035156 -0.5 3.332031 -0.570312 3.59375 -0.71875 C 3.863281 -0.875 4.070312 -1.097656 4.21875 -1.390625 C 4.375 -1.679688 4.453125 -2.015625 4.453125 -2.390625 C 4.453125 -2.773438 4.375 -3.109375 4.21875 -3.390625 C 4.070312 -3.679688 3.863281 -3.90625 3.59375 -4.0625 C 3.332031 -4.21875 3.035156 -4.296875 2.703125 -4.296875 C 2.359375 -4.296875 2.050781 -4.21875 1.78125 -4.0625 C 1.519531 -3.90625 1.3125 -3.679688 1.15625 -3.390625 C 1.007812 -3.109375 0.9375 -2.773438 0.9375 -2.390625 C 0.9375 -2.015625 1.007812 -1.679688 1.15625 -1.390625 C 1.3125 -1.097656 1.519531 -0.875 1.78125 -0.71875 C 2.050781 -0.570312 2.359375 -0.5 2.703125 -0.5 Z M 2.703125 -0.5 "/></g></g><g style="fill:#1c3762;fill-opacity:1;"><g transform="translate(179.733846, 255.162294)"><path style="stroke:none" d="M 1.140625 -4.78125 L 1.140625 -1.75 C 1.140625 -1.332031 1.242188 -1.019531 1.453125 -0.8125 C 1.660156 -0.601562 1.945312 -0.5 2.3125 -0.5 C 2.6875 -0.5 2.972656 -0.601562 3.171875 -0.8125 C 3.378906 -1.019531 3.484375 -1.332031 3.484375 -1.75 L 3.484375 -4.78125 L 4.109375 -4.78125 L 4.109375 -1.765625 C 4.109375 -1.367188 4.03125 -1.03125 3.875 -0.75 C 3.71875 -0.476562 3.5 -0.273438 3.21875 -0.140625 C 2.945312 -0.015625 2.644531 0.046875 2.3125 0.046875 C 1.96875 0.046875 1.660156 -0.015625 1.390625 -0.140625 C 1.117188 -0.273438 0.90625 -0.476562 0.75 -0.75 C 0.59375 -1.03125 0.515625 -1.367188 0.515625 -1.765625 L 0.515625 -4.78125 Z M 1.140625 -4.78125 "/></g></g><g style="fill:#1c3762;fill-opacity:1;"><g transform="translate(186.071077, 255.162294)"><path style="stroke:none" d="M 3.046875 0 L 1.90625 -1.953125 L 1.15625 -1.953125 L 1.15625 0 L 0.53125 0 L 0.53125 -4.78125 L 2.078125 -4.78125 C 2.429688 -4.78125 2.734375 -4.71875 2.984375 -4.59375 C 3.234375 -4.46875 3.421875 -4.300781 3.546875 -4.09375 C 3.671875 -3.882812 3.734375 -3.644531 3.734375 -3.375 C 3.734375 -3.039062 3.632812 -2.75 3.4375 -2.5 C 3.25 -2.25 2.96875 -2.082031 2.59375 -2 L 3.796875 0 Z M 1.15625 -2.453125 L 2.078125 -2.453125 C 2.410156 -2.453125 2.660156 -2.535156 2.828125 -2.703125 C 3.003906 -2.867188 3.09375 -3.09375 3.09375 -3.375 C 3.09375 -3.65625 3.007812 -3.875 2.84375 -4.03125 C 2.675781 -4.1875 2.421875 -4.265625 2.078125 -4.265625 L 1.15625 -4.265625 Z M 1.15625 -2.453125 "/></g></g><g style="fill:#1c3762;fill-opacity:1;"><g transform="translate(191.948791, 255.162294)"><path style="stroke:none" d=""/></g></g><g style="fill:#1c3762;fill-opacity:1;"><g transform="translate(195.48776, 255.162294)"><path style="stroke:none" d="M 2.015625 -4.78125 C 2.535156 -4.78125 2.984375 -4.679688 3.359375 -4.484375 C 3.742188 -4.296875 4.035156 -4.019531 4.234375 -3.65625 C 4.441406 -3.289062 4.546875 -2.863281 4.546875 -2.375 C 4.546875 -1.882812 4.441406 -1.457031 4.234375 -1.09375 C 4.035156 -0.738281 3.742188 -0.46875 3.359375 -0.28125 C 2.984375 -0.09375 2.535156 0 2.015625 0 L 0.53125 0 L 0.53125 -4.78125 Z M 2.015625 -0.515625 C 2.628906 -0.515625 3.097656 -0.675781 3.421875 -1 C 3.753906 -1.332031 3.921875 -1.789062 3.921875 -2.375 C 3.921875 -2.96875 3.753906 -3.429688 3.421875 -3.765625 C 3.097656 -4.097656 2.628906 -4.265625 2.015625 -4.265625 L 1.15625 -4.265625 L 1.15625 -0.515625 Z M 2.015625 -0.515625 "/></g></g><g style="fill:#1c3762;fill-opacity:1;"><g transform="translate(202.044463, 255.162294)"><path style="stroke:none" d="M 1.15625 -4.78125 L 1.15625 0 L 0.53125 0 L 0.53125 -4.78125 Z M 1.15625 -4.78125 "/></g></g><g style="fill:#1c3762;fill-opacity:1;"><g transform="translate(205.439405, 255.162294)"><path style="stroke:none" d="M 4.15625 -3.390625 C 4.019531 -3.671875 3.828125 -3.882812 3.578125 -4.03125 C 3.328125 -4.1875 3.035156 -4.265625 2.703125 -4.265625 C 2.359375 -4.265625 2.050781 -4.1875 1.78125 -4.03125 C 1.519531 -3.882812 1.3125 -3.664062 1.15625 -3.375 C 1.007812 -3.09375 0.9375 -2.765625 0.9375 -2.390625 C 0.9375 -2.015625 1.007812 -1.6875 1.15625 -1.40625 C 1.3125 -1.125 1.519531 -0.90625 1.78125 -0.75 C 2.050781 -0.59375 2.359375 -0.515625 2.703125 -0.515625 C 3.160156 -0.515625 3.539062 -0.65625 3.84375 -0.9375 C 4.144531 -1.21875 4.320312 -1.597656 4.375 -2.078125 L 2.46875 -2.078125 L 2.46875 -2.578125 L 5.046875 -2.578125 L 5.046875 -2.09375 C 5.003906 -1.707031 4.878906 -1.347656 4.671875 -1.015625 C 4.460938 -0.691406 4.1875 -0.429688 3.84375 -0.234375 C 3.5 -0.046875 3.117188 0.046875 2.703125 0.046875 C 2.253906 0.046875 1.847656 -0.0546875 1.484375 -0.265625 C 1.117188 -0.472656 0.828125 -0.757812 0.609375 -1.125 C 0.398438 -1.5 0.296875 -1.921875 0.296875 -2.390625 C 0.296875 -2.859375 0.398438 -3.28125 0.609375 -3.65625 C 0.828125 -4.03125 1.117188 -4.316406 1.484375 -4.515625 C 1.847656 -4.722656 2.253906 -4.828125 2.703125 -4.828125 C 3.203125 -4.828125 3.644531 -4.703125 4.03125 -4.453125 C 4.425781 -4.203125 4.710938 -3.847656 4.890625 -3.390625 Z M 4.15625 -3.390625 "/></g></g><g style="fill:#1c3762;fill-opacity:1;"><g transform="translate(212.48306, 255.162294)"><path style="stroke:none" d="M 1.15625 -4.78125 L 1.15625 0 L 0.53125 0 L 0.53125 -4.78125 Z M 1.15625 -4.78125 "/></g></g><g style="fill:#1c3762;fill-opacity:1;"><g transform="translate(215.878002, 255.162294)"><path style="stroke:none" d="M 3.46875 -4.78125 L 3.46875 -4.265625 L 2.171875 -4.265625 L 2.171875 0 L 1.546875 0 L 1.546875 -4.265625 L 0.234375 -4.265625 L 0.234375 -4.78125 Z M 3.46875 -4.78125 "/></g></g><g style="fill:#1c3762;fill-opacity:1;"><g transform="translate(221.2962, 255.162294)"><path style="stroke:none" d="M 3.359375 -1.0625 L 1.265625 -1.0625 L 0.890625 0 L 0.21875 0 L 1.953125 -4.75 L 2.671875 -4.75 L 4.390625 0 L 3.734375 0 Z M 3.171875 -1.578125 L 2.3125 -3.984375 L 1.453125 -1.578125 Z M 3.171875 -1.578125 "/></g></g><g style="fill:#1c3762;fill-opacity:1;"><g transform="translate(227.626576, 255.162294)"><path style="stroke:none" d="M 1.15625 -0.5 L 2.828125 -0.5 L 2.828125 0 L 0.53125 0 L 0.53125 -4.78125 L 1.15625 -4.78125 Z M 1.15625 -0.5 "/></g></g><g style="fill:#1c3762;fill-opacity:1;"><g transform="translate(232.297195, 255.162294)"><path style="stroke:none" d=""/></g></g><g style="fill:#1c3762;fill-opacity:1;"><g transform="translate(235.836164, 255.162294)"><path style="stroke:none" d="M 3.359375 -1.0625 L 1.265625 -1.0625 L 0.890625 0 L 0.21875 0 L 1.953125 -4.75 L 2.671875 -4.75 L 4.390625 0 L 3.734375 0 Z M 3.171875 -1.578125 L 2.3125 -3.984375 L 1.453125 -1.578125 Z M 3.171875 -1.578125 "/></g></g><g style="fill:#1c3762;fill-opacity:1;"><g transform="translate(242.16654, 255.162294)"><path style="stroke:none" d="M 2.046875 0.046875 C 1.734375 0.046875 1.453125 -0.00390625 1.203125 -0.109375 C 0.953125 -0.222656 0.753906 -0.378906 0.609375 -0.578125 C 0.460938 -0.785156 0.390625 -1.019531 0.390625 -1.28125 L 1.0625 -1.28125 C 1.082031 -1.050781 1.171875 -0.859375 1.328125 -0.703125 C 1.492188 -0.554688 1.734375 -0.484375 2.046875 -0.484375 C 2.335938 -0.484375 2.566406 -0.554688 2.734375 -0.703125 C 2.910156 -0.847656 3 -1.039062 3 -1.28125 C 3 -1.457031 2.945312 -1.601562 2.84375 -1.71875 C 2.75 -1.832031 2.625 -1.921875 2.46875 -1.984375 C 2.320312 -2.046875 2.117188 -2.109375 1.859375 -2.171875 C 1.546875 -2.253906 1.296875 -2.335938 1.109375 -2.421875 C 0.921875 -2.503906 0.757812 -2.632812 0.625 -2.8125 C 0.488281 -2.988281 0.421875 -3.222656 0.421875 -3.515625 C 0.421875 -3.773438 0.484375 -4.003906 0.609375 -4.203125 C 0.742188 -4.410156 0.929688 -4.566406 1.171875 -4.671875 C 1.410156 -4.785156 1.6875 -4.84375 2 -4.84375 C 2.445312 -4.84375 2.8125 -4.726562 3.09375 -4.5 C 3.382812 -4.28125 3.550781 -3.984375 3.59375 -3.609375 L 2.90625 -3.609375 C 2.882812 -3.796875 2.785156 -3.957031 2.609375 -4.09375 C 2.441406 -4.238281 2.21875 -4.3125 1.9375 -4.3125 C 1.675781 -4.3125 1.460938 -4.242188 1.296875 -4.109375 C 1.140625 -3.972656 1.0625 -3.785156 1.0625 -3.546875 C 1.0625 -3.367188 1.109375 -3.222656 1.203125 -3.109375 C 1.296875 -3.003906 1.414062 -2.921875 1.5625 -2.859375 C 1.707031 -2.804688 1.910156 -2.742188 2.171875 -2.671875 C 2.484375 -2.578125 2.734375 -2.488281 2.921875 -2.40625 C 3.117188 -2.320312 3.285156 -2.191406 3.421875 -2.015625 C 3.566406 -1.835938 3.640625 -1.597656 3.640625 -1.296875 C 3.640625 -1.066406 3.578125 -0.847656 3.453125 -0.640625 C 3.328125 -0.441406 3.140625 -0.273438 2.890625 -0.140625 C 2.648438 -0.015625 2.367188 0.046875 2.046875 0.046875 Z M 2.046875 0.046875 "/></g></g><g style="fill:#1c3762;fill-opacity:1;"><g transform="translate(247.900228, 255.162294)"><path style="stroke:none" d="M 2.046875 0.046875 C 1.734375 0.046875 1.453125 -0.00390625 1.203125 -0.109375 C 0.953125 -0.222656 0.753906 -0.378906 0.609375 -0.578125 C 0.460938 -0.785156 0.390625 -1.019531 0.390625 -1.28125 L 1.0625 -1.28125 C 1.082031 -1.050781 1.171875 -0.859375 1.328125 -0.703125 C 1.492188 -0.554688 1.734375 -0.484375 2.046875 -0.484375 C 2.335938 -0.484375 2.566406 -0.554688 2.734375 -0.703125 C 2.910156 -0.847656 3 -1.039062 3 -1.28125 C 3 -1.457031 2.945312 -1.601562 2.84375 -1.71875 C 2.75 -1.832031 2.625 -1.921875 2.46875 -1.984375 C 2.320312 -2.046875 2.117188 -2.109375 1.859375 -2.171875 C 1.546875 -2.253906 1.296875 -2.335938 1.109375 -2.421875 C 0.921875 -2.503906 0.757812 -2.632812 0.625 -2.8125 C 0.488281 -2.988281 0.421875 -3.222656 0.421875 -3.515625 C 0.421875 -3.773438 0.484375 -4.003906 0.609375 -4.203125 C 0.742188 -4.410156 0.929688 -4.566406 1.171875 -4.671875 C 1.410156 -4.785156 1.6875 -4.84375 2 -4.84375 C 2.445312 -4.84375 2.8125 -4.726562 3.09375 -4.5 C 3.382812 -4.28125 3.550781 -3.984375 3.59375 -3.609375 L 2.90625 -3.609375 C 2.882812 -3.796875 2.785156 -3.957031 2.609375 -4.09375 C 2.441406 -4.238281 2.21875 -4.3125 1.9375 -4.3125 C 1.675781 -4.3125 1.460938 -4.242188 1.296875 -4.109375 C 1.140625 -3.972656 1.0625 -3.785156 1.0625 -3.546875 C 1.0625 -3.367188 1.109375 -3.222656 1.203125 -3.109375 C 1.296875 -3.003906 1.414062 -2.921875 1.5625 -2.859375 C 1.707031 -2.804688 1.910156 -2.742188 2.171875 -2.671875 C 2.484375 -2.578125 2.734375 -2.488281 2.921875 -2.40625 C 3.117188 -2.320312 3.285156 -2.191406 3.421875 -2.015625 C 3.566406 -1.835938 3.640625 -1.597656 3.640625 -1.296875 C 3.640625 -1.066406 3.578125 -0.847656 3.453125 -0.640625 C 3.328125 -0.441406 3.140625 -0.273438 2.890625 -0.140625 C 2.648438 -0.015625 2.367188 0.046875 2.046875 0.046875 Z M 2.046875 0.046875 "/></g></g><g style="fill:#1c3762;fill-opacity:1;"><g transform="translate(253.633915, 255.162294)"><path style="stroke:none" d="M 1.15625 -4.265625 L 1.15625 -2.671875 L 2.890625 -2.671875 L 2.890625 -2.15625 L 1.15625 -2.15625 L 1.15625 -0.515625 L 3.09375 -0.515625 L 3.09375 0 L 0.53125 0 L 0.53125 -4.78125 L 3.09375 -4.78125 L 3.09375 -4.265625 Z M 1.15625 -4.265625 "/></g></g><g style="fill:#1c3762;fill-opacity:1;"><g transform="translate(258.86006, 255.162294)"><path style="stroke:none" d="M 3.46875 -4.78125 L 3.46875 -4.265625 L 2.171875 -4.265625 L 2.171875 0 L 1.546875 0 L 1.546875 -4.265625 L 0.234375 -4.265625 L 0.234375 -4.78125 Z M 3.46875 -4.78125 "/></g></g><g style="fill:#1c3762;fill-opacity:1;"><g transform="translate(264.278258, 255.162294)"><path style="stroke:none" d="M 2.046875 0.046875 C 1.734375 0.046875 1.453125 -0.00390625 1.203125 -0.109375 C 0.953125 -0.222656 0.753906 -0.378906 0.609375 -0.578125 C 0.460938 -0.785156 0.390625 -1.019531 0.390625 -1.28125 L 1.0625 -1.28125 C 1.082031 -1.050781 1.171875 -0.859375 1.328125 -0.703125 C 1.492188 -0.554688 1.734375 -0.484375 2.046875 -0.484375 C 2.335938 -0.484375 2.566406 -0.554688 2.734375 -0.703125 C 2.910156 -0.847656 3 -1.039062 3 -1.28125 C 3 -1.457031 2.945312 -1.601562 2.84375 -1.71875 C 2.75 -1.832031 2.625 -1.921875 2.46875 -1.984375 C 2.320312 -2.046875 2.117188 -2.109375 1.859375 -2.171875 C 1.546875 -2.253906 1.296875 -2.335938 1.109375 -2.421875 C 0.921875 -2.503906 0.757812 -2.632812 0.625 -2.8125 C 0.488281 -2.988281 0.421875 -3.222656 0.421875 -3.515625 C 0.421875 -3.773438 0.484375 -4.003906 0.609375 -4.203125 C 0.742188 -4.410156 0.929688 -4.566406 1.171875 -4.671875 C 1.410156 -4.785156 1.6875 -4.84375 2 -4.84375 C 2.445312 -4.84375 2.8125 -4.726562 3.09375 -4.5 C 3.382812 -4.28125 3.550781 -3.984375 3.59375 -3.609375 L 2.90625 -3.609375 C 2.882812 -3.796875 2.785156 -3.957031 2.609375 -4.09375 C 2.441406 -4.238281 2.21875 -4.3125 1.9375 -4.3125 C 1.675781 -4.3125 1.460938 -4.242188 1.296875 -4.109375 C 1.140625 -3.972656 1.0625 -3.785156 1.0625 -3.546875 C 1.0625 -3.367188 1.109375 -3.222656 1.203125 -3.109375 C 1.296875 -3.003906 1.414062 -2.921875 1.5625 -2.859375 C 1.707031 -2.804688 1.910156 -2.742188 2.171875 -2.671875 C 2.484375 -2.578125 2.734375 -2.488281 2.921875 -2.40625 C 3.117188 -2.320312 3.285156 -2.191406 3.421875 -2.015625 C 3.566406 -1.835938 3.640625 -1.597656 3.640625 -1.296875 C 3.640625 -1.066406 3.578125 -0.847656 3.453125 -0.640625 C 3.328125 -0.441406 3.140625 -0.273438 2.890625 -0.140625 C 2.648438 -0.015625 2.367188 0.046875 2.046875 0.046875 Z M 2.046875 0.046875 "/></g></g><g clip-rule="nonzero" clip-path="url(#c7c59b3e01)"><path style=" stroke:none;fill-rule:nonzero;fill:#1c3762;fill-opacity:1;" d="M 212.558594 118.851562 C 214.734375 120.363281 216.773438 122.066406 218.640625 123.933594 C 226.632812 131.925781 231.574219 142.964844 231.574219 155.15625 C 231.574219 161.273438 230.332031 167.097656 228.082031 172.394531 C 226.800781 171.222656 225.234375 170.109375 223.855469 169.25 C 223.429688 168.984375 222.996094 168.730469 222.558594 168.484375 C 224.128906 164.34375 224.992188 159.851562 224.992188 155.15625 C 224.992188 144.78125 220.785156 135.390625 213.988281 128.589844 C 213.523438 128.125 213.042969 127.671875 212.554688 127.234375 L 212.554688 118.851562 Z M 201.917969 184.007812 C 194.773438 184.691406 188.808594 182.148438 183.015625 178.164062 C 182.683594 177.9375 182.347656 177.683594 182.027344 177.414062 C 178.484375 181.128906 172.460938 183.136719 167.585938 183.839844 C 166.226562 184.035156 164.855469 184.128906 163.488281 184.121094 C 160.15625 184.105469 156.828125 183.503906 153.675781 182.414062 C 153.226562 182.257812 152.757812 182.085938 152.285156 181.898438 C 153.488281 183.480469 154.796875 184.976562 156.199219 186.378906 C 164.191406 194.367188 175.226562 199.308594 187.421875 199.308594 C 199.613281 199.308594 210.652344 194.367188 218.640625 186.375 C 221.164062 183.855469 223.382812 181.027344 225.234375 177.960938 C 221.753906 178.605469 218.441406 179.539062 215.054688 180.609375 L 215.050781 180.613281 L 215.054688 180.613281 C 214.605469 180.753906 214.152344 180.898438 213.699219 181.046875 C 209.859375 182.289062 205.957031 183.621094 201.917969 184.007812 Z M 187.421875 111 C 189.714844 111 191.96875 111.175781 194.171875 111.515625 L 183.101562 117.832031 C 174.453125 118.820312 166.691406 122.746094 160.851562 128.589844 C 154.054688 135.386719 149.847656 144.78125 149.847656 155.15625 C 149.847656 161.410156 151.378906 167.308594 154.082031 172.496094 C 152.246094 173.425781 150.371094 174.28125 148.394531 175.046875 L 148.054688 175.175781 C 144.992188 169.167969 143.265625 162.363281 143.265625 155.15625 C 143.265625 142.964844 148.207031 131.925781 156.199219 123.933594 C 164.191406 115.945312 175.226562 111 187.421875 111 Z M 187.421875 111 "/></g><g clip-rule="nonzero" clip-path="url(#0d11797f17)"><path style=" stroke:none;fill-rule:evenodd;fill:#3facda;fill-opacity:1;" d="M 182.085938 121.441406 L 182.085938 162.125 C 185.238281 162.484375 188.363281 163.402344 191.519531 164.664062 C 191.933594 164.824219 192.347656 165.015625 192.753906 165.230469 L 192.753906 115.351562 Z M 199.253906 111.648438 L 199.253906 165.902344 C 202.6875 164.800781 206.582031 164.527344 209.921875 164.726562 L 209.921875 105.558594 Z M 164.917969 131.234375 L 164.917969 166.339844 C 167.125 165.089844 169.394531 163.953125 171.796875 163.160156 C 173.074219 162.738281 174.335938 162.433594 175.585938 162.238281 L 175.585938 125.148438 Z M 164.917969 131.234375 "/></g><path style=" stroke:none;fill-rule:evenodd;fill:#1c3762;fill-opacity:1;" d="M 149.34375 177.5 C 149.34375 177.5 157.175781 182.679688 167.214844 181.234375 C 174.847656 180.132812 178.96875 176.953125 180.472656 175.207031 C 182.167969 173.238281 179.871094 172.277344 178.421875 173.277344 C 176.792969 174.40625 172.457031 176.910156 172.632812 175.515625 C 173.507812 168.640625 186.324219 167.355469 191.710938 170.617188 C 191.710938 170.617188 193.253906 171.59375 193.617188 170.53125 C 193.980469 169.46875 193.195312 168.15625 190.546875 167.105469 C 171.636719 159.585938 167.105469 170.636719 149.34375 177.5 "/><path style=" stroke:none;fill-rule:evenodd;fill:#3facda;fill-opacity:1;" d="M 226.992188 175 C 226.992188 175 220.503906 168.214844 210.398438 167.398438 C 202.710938 166.777344 197.988281 168.960938 196.132812 170.332031 C 194.042969 171.875 196.070312 173.324219 197.703125 172.667969 C 199.542969 171.929688 204.324219 170.449219 203.84375 171.769531 C 201.464844 178.28125 188.679688 176.691406 184.152344 172.3125 C 184.152344 172.3125 182.867188 171.023438 182.277344 171.976562 C 181.6875 172.929688 182.164062 174.386719 184.507812 176 C 201.28125 187.527344 208.152344 177.753906 226.992188 175 "/></g></svg>